<?xml version="1.0" encoding="UTF-8"?>
<svg id="Warstwa_2" xmlns="http://www.w3.org/2000/svg" viewBox="0 0 324.719 86.461">
  <defs>
    <style>
      .cls-1 {
        fill: #102c4d;
      }

      .cls-2 {
        fill: #0b2749;
      }

      .cls-3 {
        fill: #94c120;
      }

      .cls-4 {
        fill: #0d294a;
      }

      .cls-5 {
        fill: #0e2a4b;
      }

      .cls-6 {
        fill: #0b2849;
      }

      .cls-7 {
        fill: #0f2b4c;
      }

      .cls-8 {
        fill: #0c284a;
      }

      .cls-9 {
        fill: #0a2648;
      }

      .cls-10 {
        fill: #95c123;
      }
    </style>
  </defs>
  <g id="Warstwa_1-2" data-name="Warstwa_1">
    <g>
      <path class="cls-10" d="M0,69.696c.079-.282.224-.562.229-.845.124-7.178.197-14.358.359-21.535.108-4.777.052-9.574,1.087-14.284.101-.46.208-.919.339-1.499.412.244.749.436,1.079.639,5.54,3.406,11.052,6.861,16.627,10.21,6.904,4.146,10.255,10.281,10.393,18.226.129,7.422-2.171,14.277-5.082,20.976-.234.539-.452,1.085-.761,1.829h300.351v3.05H0c0-5.588,0-11.177,0-16.765Z"/>
      <path class="cls-3" d="M54.2,0c1.618.629,3.254,1.214,4.85,1.894,6.281,2.673,11.584,6.667,15.988,11.872-7.804,8.783-16.657,15.732-28.821,17.092-6.947.777-13.666-.401-20.3-2.383-6.798-2.031-12.909-5.429-18.929-9.332C12.82,9.691,21.009,3.318,31.673.123c-.116.281-.185.593-.354.837-1.827,2.64-2.708,5.55-2.643,8.766.119,5.888,3.888,11.199,9.402,13.19,5.341,1.928,11.557.267,15.24-4.027,4.417-5.151,4.981-12.935.162-18.888.24,0,.48,0,.719,0Z"/>
      <path class="cls-3" d="M82.905,28.427c6.635,19.452-2.528,44.645-25.222,53.235-1.354-1.97-1.721-4.233-1.753-6.547-.094-6.758,1.872-13.043,4.634-19.108,3.071-6.745,7.258-12.698,12.672-17.813,2.954-2.79,5.677-5.823,8.512-8.74.33-.34.71-.632,1.158-1.027Z"/>
      <path class="cls-2" d="M203.597,64.716v12.533h-4.742v-43.063h3.318c.25,1.023.51,2.085.808,3.307.439-.537.789-.952,1.124-1.379,3.095-3.948,12.898-4.192,15.622,2.764,1.578,4.03,1.755,8.224,1.485,12.464-.184,2.885-.854,5.65-2.173,8.253-3.037,5.992-9.441,7.222-14.726,5.394-.184-.064-.363-.139-.715-.274ZM216.3,48.837c-.073-2.679-.201-5.384-1.387-7.902-1.322-2.808-3.637-3.955-6.661-3.325-2.48.517-4.628,3.192-4.637,5.845-.017,5.264.01,10.529-.023,15.793-.004.705.264,1.063.835,1.403,3.696,2.201,8.016,1.04,10.045-2.741,1.518-2.828,1.765-5.914,1.826-9.074Z"/>
      <path class="cls-7" d="M305.618,34.12c-3.622,4.901-5.799,10.391-10.021,14.468,4.861,4.516,7.073,10.879,11.146,16.359-2.068,0-3.805.04-5.536-.037-.313-.014-.689-.457-.892-.79-2.274-3.744-4.591-7.466-6.738-11.282-.806-1.432-1.706-2.097-3.447-1.54v13.566h-4.888V21.854h4.824v26.02c1.417-.194,2.255-.837,2.905-1.982,2.084-3.671,4.292-7.271,6.414-10.921.366-.629.764-.899,1.505-.868,1.431.06,2.867.017,4.729.017Z"/>
      <path class="cls-8" d="M192.549,48.724c-.049,3.329-.204,6.625-1.365,9.789-1.801,4.907-5.945,7.587-11.164,7.228-5.92-.407-9.123-3.027-10.461-8.843-1.198-5.207-1.262-10.471.279-15.617,2.442-8.157,13.298-10.843,19.033-4.778,1.943,2.054,2.725,4.655,3.181,7.35.271,1.606.339,3.246.498,4.871ZM187.718,49.699c-.208-3.396-.713-6.511-1.623-8.455-.866-1.85-2.124-3.278-4.255-3.658-3.303-.589-5.872.966-7.014,4.302-1.281,3.739-1.272,7.61-.787,11.453.229,1.817.831,3.637,1.564,5.325.71,1.636,2.145,2.644,3.984,2.901,3.395.473,6.008-1.128,6.93-4.594.629-2.364.817-4.844,1.203-7.272Z"/>
      <path class="cls-4" d="M261.055,64.887h-4.832v-30.661h3.484c.266.941.555,1.962.849,3.004,1.031-.807,1.952-1.68,3.011-2.328,3.064-1.875,6.372-1.969,9.682-.854,2.582.87,3.666,3.086,4.187,5.559.303,1.435.487,2.921.498,4.386.051,6.784.022,13.569.021,20.354,0,.154-.02.308-.035.53h-4.763c0-.424,0-.85,0-1.276-.013-6.226-.009-12.451-.057-18.677-.008-1.067-.201-2.139-.373-3.198-.655-4.03-3.644-4.861-6.966-3.958-2.808.764-4.704,3.421-4.704,6.314,0,6.466,0,12.931,0,19.397v1.406Z"/>
      <path class="cls-6" d="M227.126,34.165h4.784c0,.46,0,.881,0,1.303,0,6.183-.026,12.367.02,18.55.01,1.344.167,2.71.449,4.025.654,3.048,2.936,4.304,5.937,3.381,2.761-.85,5.302-4.274,5.302-7.147,0-6.263,0-12.526,0-18.79v-1.275h4.732c.35,10.195-.438,20.402.582,30.651h-3.313c-.378-1.32-.766-2.675-.971-3.39-1.01.779-2.157,1.767-3.405,2.604-3.309,2.221-6.862,2.24-10.349.622-2.393-1.11-3.103-3.518-3.502-5.931-.207-1.253-.303-2.538-.309-3.809-.029-6.702-.014-13.404-.012-20.106,0-.196.029-.393.053-.688Z"/>
      <path class="cls-1" d="M115.955,22.394c-.414,1.341-.788,2.549-1.146,3.709-1.419-.201-2.776-.501-4.144-.56-2.08-.091-3.145.775-3.432,2.847-.255,1.84-.284,3.711-.423,5.718h6.867v4.044h-6.72v26.742h-4.903v-26.656h-3.948v-4.096h4.014c0-1.252-.106-2.442.026-3.604.182-1.613.403-3.247.859-4.798.643-2.185,2.18-3.599,4.46-4.034,2.828-.54,5.617-.369,8.49.688Z"/>
      <path class="cls-7" d="M149.693,34.186c.252,2.369.005,4.398-1.31,6.447-3.633,5.663-6.998,11.497-10.52,17.231-.636,1.036-1.522,1.92-2.394,3h14.208v4.036h-19.181c-.199-2.238-.066-4.229,1.237-6.25,3.559-5.521,6.843-11.218,10.288-16.813.743-1.207,1.702-2.282,2.668-3.559h-14.185v-4.091h19.19Z"/>
      <path class="cls-1" d="M311.564,38.181h-3.927v-3.978h3.927c0-1.731.05-3.347-.02-4.958-.039-.889.146-1.363,1.12-1.556,1.235-.245,2.429-.699,3.766-1.1v7.465h7.063v4.13h-6.97c-.026.501-.062.885-.063,1.269-.004,5.784-.02,11.568.015,17.352.006.985.139,1.993.387,2.945.314,1.208,1.199,1.935,2.476,1.813,1.449-.139,2.881-.461,4.468-.728.255.936.564,2.072.915,3.359-3.18,1.292-6.383,2.133-9.735.966-2.317-.806-2.884-2.927-3.185-5.072-.171-1.218-.22-2.461-.225-3.693-.023-5.584-.01-11.169-.01-16.753v-1.459Z"/>
      <path class="cls-9" d="M152.377,77.817v-3.754c.05-.041.079-.086.112-.089,3.152-.273,4.014-2.435,4.221-5.121.07-.913.127-1.83.128-2.746.009-10.172.006-20.344.006-30.516,0-.437,0-.874,0-1.388h4.755c.027.249.08.509.08.77-.009,11.049.038,22.099-.092,33.147-.024,2.062-.513,4.209-1.234,6.151-1.158,3.118-4.646,4.537-7.974,3.545Z"/>
      <path class="cls-8" d="M123.432,64.896h-4.68v-30.699h4.68v30.699Z"/>
      <path class="cls-5" d="M162.602,24.756c.005,1.94-1.305,3.204-3.347,3.23-1.985.025-3.344-1.294-3.335-3.237.01-1.974,1.332-3.314,3.279-3.321,2.032-.007,3.398,1.329,3.403,3.328Z"/>
      <path class="cls-5" d="M124.47,24.769c.003,1.92-1.341,3.204-3.37,3.217-2.016.014-3.321-1.267-3.312-3.249.009-1.983,1.323-3.308,3.281-3.309,2.028-.002,3.397,1.343,3.401,3.341Z"/>
    </g>
  </g>
</svg>